<svg height="512pt" viewBox="0 0 512 512" width="512pt" xmlns="http://www.w3.org/2000/svg"><g fill="#ffb954"><path d="m286 46.121094v-6.121094c0-16.570312-13.433594-30-30-30s-30 13.429688-30 30v6.121094c9.800781-1.386719 19.8125-2.121094 30-2.121094s20.199219.734375 30 2.121094zm0 0"/><path d="m226 465.878906v6.121094c0 16.570312 13.433594 30 30 30s30-13.429688 30-30v-6.121094c-9.800781 1.386719-19.8125 2.121094-30 2.121094s-20.199219-.734375-30-2.121094zm0 0"/><path d="m46.121094 226h-6.121094c-16.566406 0-30 13.429688-30 30s13.433594 30 30 30h6.121094c-1.386719-9.800781-2.121094-19.816406-2.121094-30s.734375-20.199219 2.121094-30zm0 0"/><path d="m472 226h-6.121094c1.386719 9.800781 2.121094 19.816406 2.121094 30s-.734375 20.199219-2.121094 30h6.121094c16.566406 0 30-13.429688 30-30s-13.433594-30-30-30zm0 0"/><path d="m425.617188 128.808594 4.332031-4.328125c11.714843-11.71875 11.714843-30.710938 0-42.425781-11.714844-11.71875-30.710938-11.71875-42.425781 0l-4.332032 4.332031c16.066406 12.0625 30.359375 26.355469 42.425782 42.421875zm0 0"/><path d="m86.382812 383.191406-4.332031 4.328125c-11.714843 11.71875-11.714843 30.710938 0 42.425781 11.714844 11.71875 30.710938 11.71875 42.425781 0l4.332032-4.328124c-16.066406-12.066407-30.359375-26.359376-42.425782-42.425782zm0 0"/><path d="m383.191406 425.617188 4.332032 4.332031c11.714843 11.714843 30.707031 11.714843 42.425781 0 11.714843-11.71875 11.714843-30.710938 0-42.425781l-4.332031-4.332032c-12.066407 16.066406-26.359376 30.359375-42.425782 42.425782zm0 0"/><path d="m128.808594 86.382812-4.332032-4.332031c-11.714843-11.714843-30.707031-11.714843-42.425781 0-11.714843 11.714844-11.714843 30.710938 0 42.425781l4.332031 4.332032c12.066407-16.066406 26.359376-30.359375 42.425782-42.425782zm0 0"/></g><path d="m425.617188 128.808594c-12.066407-16.0625-26.359376-30.359375-42.425782-42.425782-24.289062-18.242187-52.625-31.371093-83.417968-37.835937-30.792969 6.464844-59.128907 19.59375-83.417969 37.835937-16.0625 12.066407-30.359375 26.363282-42.425781 42.425782-20.929688 27.871094-35.140626 61.066406-40.257813 97.191406-1.390625 9.800781-2.125 19.816406-2.125 30s.734375 20.199219 2.125 30c5.117187 36.125 19.328125 69.320312 40.257813 97.191406 12.066406 16.0625 26.363281 30.359375 42.425781 42.425782 24.289062 18.242187 52.625 31.371093 83.417969 37.835937 30.792968-6.464844 59.128906-19.59375 83.417968-37.835937 16.066406-12.066407 30.359375-26.363282 42.425782-42.425782 20.933593-27.871094 35.144531-61.066406 40.261718-97.191406 1.386719-9.800781 2.121094-19.816406 2.121094-30s-.734375-20.199219-2.121094-30c-5.121094-36.125-19.332031-69.320312-40.261718-97.191406zm0 0" fill="#ffc66c"/><path d="m234.417969 283.167969c6.394531 0 12.5 1.242187 18.097656 3.484375-7.1875-17.960938-24.738281-30.652344-45.265625-30.652344-26.925781 0-48.75 21.824219-48.75 48.75 0 20.527344 12.691406 38.078125 30.652344 45.265625-2.242188-5.597656-3.484375-11.703125-3.484375-18.097656 0-26.925781 21.824219-48.75 48.75-48.75zm0 0" fill="#fff"/><path d="m256 304.75c0-6.398438-1.246094-12.5-3.484375-18.097656-5.597656-2.242188-11.703125-3.484375-18.101563-3.484375-26.921874 0-48.75 21.824219-48.75 48.75 0 6.398437 1.246094 12.5 3.488282 18.097656 5.59375 2.238281 11.699218 3.484375 18.097656 3.484375 26.925781 0 48.75-21.824219 48.75-48.75zm0 0" fill="#9bf"/><path d="m30.65625 482.605469 145.226562-145.222657 13.53125 13.53125-28.28125-28.28125-145.226562 145.222657c-7.808594 7.8125-7.808594 20.476562 0 28.285156 2.707031 2.707031 6 4.453125 9.46875 5.285156-1.566406-6.542969.179688-13.714843 5.28125-18.820312zm0 0" fill="#fff"/><path d="m44.191406 496.140625 145.226563-145.222656-13.535157-13.535157-145.226562 145.222657c-5.101562 5.105469-6.847656 12.277343-5.28125 18.820312 6.539062 1.566407 13.710938-.179687 18.816406-5.285156zm0 0" fill="#6a80ff"/><path d="m512 256c0-21.238281-16.644531-38.660156-37.570312-39.917969-5.609376-31.0625-17.753907-60.378906-35.75-86.304687 13.90625-15.691406 13.359374-39.777344-1.660157-54.796875s-39.105469-15.566407-54.792969-1.660157c-25.929687-17.996093-55.246093-30.140624-86.304687-35.75-1.261719-20.925781-18.683594-37.570312-39.921875-37.570312s-38.660156 16.644531-39.917969 37.570312c-31.0625 5.609376-60.378906 17.753907-86.304687 35.75-15.691406-13.90625-39.777344-13.359374-54.796875 1.660157s-15.566407 39.105469-1.660157 54.792969c-17.996093 25.929687-30.140624 55.246093-35.75 86.304687-20.925781 1.261719-37.570312 18.683594-37.570312 39.921875 0 21.230469 16.628906 38.640625 37.542969 39.917969 6.152343 34.222656 20.261719 66.292969 41.722656 94.441406l-70.429687 70.425781c-11.695313 11.699219-11.695313 30.730469 0 42.429688 5.851562 5.847656 13.53125 8.769531 21.214843 8.769531 7.679688 0 15.363281-2.925781 21.210938-8.769531l13.476562-13.476563c3.90625-3.90625 3.90625-10.238281 0-14.140625-3.902343-3.90625-10.234375-3.90625-14.140625 0l-13.476562 13.472656c-3.898438 3.902344-10.246094 3.898438-14.144532 0-3.898437-3.898437-3.898437-10.242187 0-14.140624l136.3125-136.3125c3.878907 5.476562 8.667969 10.261718 14.152344 14.132812l-70.84375 70.84375c-3.90625 3.90625-3.90625 10.238281 0 14.144531 1.953125 1.953125 4.511719 2.929688 7.070313 2.929688 2.558593 0 5.117187-.976563 7.070312-2.929688l4.964844-4.964843c27.761719 21.097656 60.226563 35.308593 94.371094 41.574218 1.21875 20.964844 18.65625 37.652344 39.925781 37.652344 21.238281 0 38.660156-16.644531 39.917969-37.570312 31.0625-5.609376 60.378906-17.753907 86.304687-35.75 7.542969 6.6875 17.023438 10.039062 26.511719 10.039062 10.242187 0 20.488281-3.902344 28.285156-11.699219 15.019531-15.019531 15.566407-39.105469 1.660157-54.792969 17.996093-25.929687 30.140624-55.246093 35.75-86.304687 20.925781-1.261719 37.570312-18.683594 37.570312-39.921875zm-20 0c0 9.242188-6.308594 17.015625-14.839844 19.300781.546875-6.382812.839844-12.820312.839844-19.300781s-.292969-12.917969-.839844-19.300781c8.53125 2.285156 14.839844 10.058593 14.839844 19.300781zm-69.121094-166.878906c6.53125 6.535156 7.570313 16.492187 3.152344 24.140625-4.125-4.898438-8.46875-9.65625-13.054688-14.238281-4.582031-4.585938-9.339843-8.929688-14.238281-13.054688 7.644531-4.417969 17.605469-3.378906 24.140625 3.152344zm-166.878906-69.121094c9.242188 0 17.015625 6.308594 19.300781 14.839844-6.382812-.546875-12.820312-.839844-19.300781-.839844s-12.917969.292969-19.300781.839844c2.285156-8.53125 10.058593-14.839844 19.300781-14.839844zm-166.878906 69.121094c6.535156-6.53125 16.496094-7.570313 24.140625-3.152344-4.898438 4.125-9.65625 8.46875-14.238281 13.054688-4.585938 4.582031-8.929688 9.339843-13.054688 14.238281-4.417969-7.648438-3.378906-17.605469 3.152344-24.140625zm-69.121094 166.878906c0-9.242188 6.308594-17.015625 14.839844-19.300781-.546875 6.382812-.839844 12.820312-.839844 19.300781 0 6.484375.273438 12.917969.816406 19.292969-8.519531-2.289063-14.816406-10.0625-14.816406-19.292969zm148.5 48.75c0-21.367188 17.382812-38.75 38.75-38.75s38.75 17.382812 38.75 38.75-17.382812 38.75-38.75 38.75-38.75-17.382812-38.75-38.75zm87.5 187.25c-9.246094 0-17.023438-6.316406-19.304688-14.851562 6.40625.5625 12.84375.851562 19.304688.851562 6.480469 0 12.917969-.292969 19.300781-.839844-2.285156 8.53125-10.058593 14.839844-19.300781 14.839844zm166.878906-69.121094c-6.535156 6.535156-16.496094 7.570313-24.140625 3.152344 4.898438-4.125 9.65625-8.46875 14.238281-13.054688 4.585938-4.582031 8.929688-9.339843 13.054688-14.238281 4.417969 7.648438 3.378906 17.605469-3.152344 24.140625zm-166.878906 35.121094c-43.160156 0-85.449219-13.976562-120.015625-39.507812l56.796875-56.800782c4.632812 1.179688 9.476562 1.808594 14.46875 1.808594 32.394531 0 58.75-26.355469 58.75-58.75s-26.355469-58.75-58.75-58.75-58.75 26.355469-58.75 58.75c0 5.019531.636719 9.894531 1.824219 14.546875l-56.773438 56.777344c-25.898437-34.90625-39.550781-76.253907-39.550781-120.074219 0-111.382812 90.617188-202 202-202s202 90.617188 202 202-90.617188 202-202 202zm0 0"/><path d="m82.640625 447.691406c-2.628906 0-5.199219 1.070313-7.070313 2.929688-1.859374 1.859375-2.929687 4.4375-2.929687 7.070312 0 2.628906 1.070313 5.207032 2.929687 7.070313 1.859376 1.859375 4.441407 2.929687 7.070313 2.929687s5.210937-1.070312 7.078125-2.929687c1.859375-1.863281 2.929688-4.441407 2.929688-7.070313 0-2.632812-1.066407-5.210937-2.929688-7.070312-1.867188-1.859375-4.449219-2.929688-7.078125-2.929688zm0 0"/><path d="m340.570312 171.429688c-3.90625-3.90625-10.234374-3.90625-14.140624 0l-33.5 33.5c-3.90625 3.90625-3.90625 10.234374 0 14.140624 1.953124 1.953126 4.511718 2.929688 7.070312 2.929688s5.117188-.976562 7.070312-2.929688l33.5-33.5c3.90625-3.90625 3.90625-10.234374 0-14.140624zm0 0"/><path d="m262.242188 235.617188-.085938.082031c-3.890625 3.917969-3.875 10.25.042969 14.140625 1.949219 1.941406 4.5 2.910156 7.050781 2.910156 2.566406 0 5.136719-.984375 7.09375-2.949219l.082031-.085937c3.894531-3.914063 3.875-10.246094-.042969-14.140625-3.914062-3.890625-10.246093-3.875-14.140624.042969zm0 0"/><path d="m266 189v-41c0-5.523438-4.476562-10-10-10s-10 4.476562-10 10v41c0 5.523438 4.476562 10 10 10s10-4.476562 10-10zm0 0"/><path d="m370 246h-42c-5.523438 0-10 4.476562-10 10s4.476562 10 10 10h42c5.523438 0 10-4.476562 10-10s-4.476562-10-10-10zm0 0"/></svg>